<svg width="20" height="21" viewBox="0 0 20 21" fill="none" xmlns="http://www.w3.org/2000/svg">
<path d="M4.66619 10.5455C4.66619 9.57292 4.90317 8.68655 5.37713 7.88636C5.85724 7.08002 6.4974 6.43987 7.29759 5.96591C8.10393 5.48579 8.99337 5.24574 9.96591 5.24574C10.8215 5.24574 11.6094 5.4304 12.3295 5.79971C13.0497 6.16903 13.6437 6.67377 14.1115 7.31392C14.5855 7.95407 14.8748 8.67732 14.9794 9.48366H12.4034C12.2988 8.96046 12.0156 8.53575 11.554 8.20952C11.0923 7.87713 10.563 7.71094 9.96591 7.71094C9.44886 7.71094 8.97491 7.8402 8.54403 8.09872C8.11932 8.35109 7.7777 8.69271 7.51918 9.12358C7.26681 9.5483 7.14062 10.0192 7.14062 10.5362C7.14062 11.0594 7.26681 11.5365 7.51918 11.9673C7.7777 12.392 8.11932 12.7337 8.54403 12.9922C8.97491 13.2507 9.44886 13.38 9.96591 13.38C10.563 13.38 11.0739 13.2169 11.4986 12.8906C11.9233 12.5582 12.188 12.1304 12.2926 11.6072H14.8686C14.764 12.4136 14.4839 13.1368 14.0284 13.777C13.5791 14.4171 13.0036 14.9219 12.3018 15.2912C11.6001 15.6605 10.8215 15.8452 9.96591 15.8452C8.99337 15.8452 8.10393 15.6082 7.29759 15.1342C6.4974 14.6541 5.85724 14.014 5.37713 13.2138C4.90317 12.4074 4.66619 11.518 4.66619 10.5455ZM9.89205 20.2955C8.55019 20.2955 7.28835 20.0431 6.10653 19.5384C4.93087 19.0336 3.8937 18.335 2.99503 17.4425C2.10251 16.5438 1.4008 15.5066 0.889915 14.331C0.38518 13.1553 0.13589 11.8935 0.142046 10.5455C0.148201 9.19744 0.403646 7.93561 0.908381 6.75994C1.41927 5.58428 2.12098 4.55019 3.01349 3.65767C3.90601 2.759 4.9401 2.05729 6.11577 1.55256C7.29143 1.04782 8.55019 0.795454 9.89205 0.795454C11.2401 0.795454 12.5019 1.04782 13.6776 1.55256C14.8594 2.05729 15.8935 2.759 16.7798 3.65767C17.6723 4.55019 18.371 5.58428 18.8757 6.75994C19.3804 7.93561 19.6359 9.19744 19.642 10.5455C19.6482 11.8935 19.3989 13.1553 18.8942 14.331C18.3894 15.5066 17.6908 16.5438 16.7983 17.4425C15.9058 18.335 14.8686 19.0336 13.6868 19.5384C12.505 20.0431 11.2401 20.2955 9.89205 20.2955ZM9.89205 17.5348C10.8584 17.5348 11.7663 17.3532 12.6158 16.9901C13.4652 16.6269 14.2069 16.1283 14.8409 15.4943C15.4811 14.8542 15.9796 14.1125 16.3366 13.2692C16.6998 12.4197 16.8814 11.5149 16.8814 10.5547C16.8752 9.5883 16.6906 8.6804 16.3274 7.83097C15.9704 6.98153 15.4718 6.23982 14.8317 5.60582C14.1915 4.96567 13.4498 4.46401 12.6065 4.10085C11.7633 3.73769 10.8584 3.55611 9.89205 3.55611C8.93182 3.55611 8.03007 3.73769 7.18679 4.10085C6.34351 4.46401 5.6018 4.96567 4.96165 5.60582C4.3215 6.24597 3.81984 6.99077 3.45668 7.8402C3.09351 8.68348 2.90885 9.5883 2.9027 10.5547C2.9027 11.5088 3.0812 12.4105 3.43821 13.2599C3.80137 14.1032 4.30303 14.8449 4.94318 15.4851C5.58333 16.1252 6.32505 16.6269 7.16832 16.9901C8.01776 17.3532 8.92566 17.5348 9.89205 17.5348Z" fill="#8E8C93"/>
</svg>
