<svg width="21" height="24" viewBox="0 0 21 24" fill="none" xmlns="http://www.w3.org/2000/svg">
<path d="M10.16 0C4.65897 0 0 4.10924 0 8.97605C0 14.0731 5.40038 19.2856 9.03279 22.9491C9.04705 22.9638 9.63414 23.5353 10.3571 23.5353H10.4208C11.1446 23.5353 11.7275 22.9638 11.7418 22.9491C15.1503 19.5128 20.1288 13.8458 20.1288 8.97605C20.1288 4.10851 16.4947 0 10.16 0ZM10.4963 21.962C10.467 21.9878 10.4242 22.0165 10.3864 22.0407C10.3479 22.0172 10.3059 21.9878 10.2749 21.962L9.83626 21.5193C6.39256 18.0551 1.67656 13.3104 1.67656 8.97531C1.67656 4.90652 5.56141 1.46953 10.1592 1.46953C15.8866 1.46953 18.4505 5.23897 18.4505 8.97531C18.4505 12.2659 15.7742 16.6363 10.4963 21.962ZM10.0937 4.45346C7.31513 4.45346 5.06155 6.42901 5.06155 8.86646C5.06155 11.3039 7.31513 13.2795 10.0937 13.2795C12.8724 13.2795 15.1259 11.3032 15.1259 8.86646C15.1259 6.42974 12.8732 4.45346 10.0937 4.45346ZM10.0937 11.8085C8.24357 11.8085 6.70037 10.4566 6.70037 8.8341C6.70037 7.21158 8.20499 5.89209 10.0552 5.89209C11.9062 5.89209 13.41 7.21158 13.41 8.8341C13.4108 10.4566 11.9447 11.8085 10.0937 11.8085Z" fill="#888889"/>
</svg>
