<svg width="30" height="30" viewBox="0 0 30 30" fill="none" xmlns="http://www.w3.org/2000/svg">
<path d="M16.2842 6.44556H5.3649C2.9649 6.44556 1 8.41046 1 10.8105V26.7544C1 28.7894 2.45965 29.6596 4.24211 28.6631L9.75788 25.5894C10.3474 25.2666 11.3018 25.2666 11.8772 25.5894L17.393 28.6631C19.1754 29.6596 20.6351 28.7894 20.6351 26.7544V10.8105C20.6491 8.41046 18.6842 6.44556 16.2842 6.44556Z" stroke="#888889" stroke-width="1.71789" stroke-linecap="round" stroke-linejoin="round"/>
<path d="M20.6491 10.8105V26.7544C20.6491 28.7894 19.1895 29.6456 17.407 28.6631L11.8912 25.5894C11.3018 25.2666 10.3474 25.2666 9.75788 25.5894L4.24211 28.6631C2.45965 29.6456 1 28.7894 1 26.7544V10.8105C1 8.41046 2.9649 6.44556 5.3649 6.44556H16.2842C18.6842 6.44556 20.6491 8.41046 20.6491 10.8105Z" stroke="#888889" stroke-width="1.71789" stroke-linecap="round" stroke-linejoin="round"/>
<path d="M29.07 5.3649V21.3088C29.07 23.3439 27.6104 24.2 25.8279 23.2175L20.649 20.3263V10.8105C20.649 8.41051 18.6841 6.44561 16.2841 6.44561H9.4209V5.3649C9.4209 2.9649 11.3858 1 13.7858 1H24.7051C27.1051 1 29.07 2.9649 29.07 5.3649Z" stroke="#888889" stroke-width="1.71789" stroke-linecap="round" stroke-linejoin="round"/>
</svg>
