<svg width="27" height="29" viewBox="0 0 27 29" fill="none" xmlns="http://www.w3.org/2000/svg">
<g clip-path="url(#clip0_62_79)">
<path d="M22.7809 19.9376C21.3921 19.9376 20.1627 20.6626 19.3949 21.7754L8.28443 15.6945C8.38061 15.313 8.43714 14.9151 8.43714 14.501C8.43714 13.9826 8.35192 13.4869 8.20343 13.0238L19.3764 7.20023C20.1433 8.3276 21.3803 9.06348 22.7809 9.06348C25.1113 9.06348 26.9996 7.03438 26.9996 4.53223C26.9996 2.03007 25.1113 0.000976562 22.7809 0.000976562C20.4505 0.000976562 18.5621 2.03007 18.5621 4.53223C18.5621 4.88385 18.6035 5.2246 18.6744 5.55357L7.34111 11.4605C6.56908 10.5461 5.45871 9.96882 4.21924 9.96882C1.88964 9.96882 0.000488281 11.9979 0.000488281 14.5001C0.000488281 17.0022 1.88964 19.0313 4.21924 19.0313C5.5608 19.0313 6.75386 18.3571 7.52674 17.3076L18.6828 23.4149C18.6069 23.7538 18.563 24.1054 18.563 24.4688C18.563 26.971 20.4513 29.0001 22.7817 29.0001C25.1122 29.0001 27.0005 26.971 27.0005 24.4688C27.0005 21.9667 25.1113 19.9376 22.7809 19.9376ZM22.7809 1.81257C24.179 1.81257 25.3121 3.02966 25.3121 4.53132C25.3121 6.03298 24.179 7.25007 22.7809 7.25007C21.3828 7.25007 20.2496 6.03298 20.2496 4.53132C20.2496 3.02966 21.3828 1.81257 22.7809 1.81257ZM4.21839 17.2188C2.8203 17.2188 1.68714 16.0017 1.68714 14.5001C1.68714 12.9984 2.8203 11.7813 4.21839 11.7813C5.61649 11.7813 6.74964 12.9993 6.74964 14.5001C6.74964 16.0008 5.61649 17.2188 4.21839 17.2188ZM22.7809 27.1876C21.3828 27.1876 20.2496 25.9705 20.2496 24.4688C20.2496 22.9672 21.3828 21.7501 22.7809 21.7501C24.179 21.7501 25.3121 22.9672 25.3121 24.4688C25.3121 25.9705 24.179 27.1876 22.7809 27.1876Z" fill="#888889"/>
</g>
<defs>
<clipPath id="clip0_62_79">
<rect width="27" height="29" fill="white"/>
</clipPath>
</defs>
</svg>
