<svg width="24" height="23" viewBox="0 0 24 23" fill="none" xmlns="http://www.w3.org/2000/svg">
<path d="M2.14576 0.974654C-0.00495011 1.99959 -0.42745 5.20337 0.384538 7.81454C1.01691 9.84797 2.36138 12.5757 4.62849 15.1442C6.76123 17.5606 9.73671 19.7272 12.0055 20.9808C14.919 22.5904 19.0723 23.6136 21.223 22.5886C22.3105 22.0704 23.9263 20.6544 24 20.4003C24 20.4003 23.0525 19.3269 22.8446 19.0913L19.6673 15.4915C19.4312 15.224 17.9506 15.4685 17.1984 15.7816C16.1837 16.204 15.2493 17.3375 15.2493 17.3375C14.5536 17.6328 13.9708 17.3385 12.7533 16.9268C11.2569 16.4209 9.57446 14.849 8.23543 13.4253C7.01243 11.9463 5.7453 10.1764 5.72696 8.96616C5.71186 7.98138 5.58384 7.47044 6.23462 7.12409C6.23462 7.12409 8.02415 6.95941 8.96287 6.45098C9.65864 6.074 10.5663 5.18032 10.3302 4.91277L7.15292 1.31301C6.945 1.07744 5.99754 0.00398366 5.99754 0.00398366C5.6517 -0.0501471 3.23328 0.456391 2.14576 0.974654Z" fill="#888889"/>
</svg>
