<svg width="14" height="13" viewBox="0 0 14 13" fill="none" xmlns="http://www.w3.org/2000/svg">
<path d="M13.9774 4.93181C13.9253 4.78737 13.7906 4.68214 13.6285 4.65898L9.32457 4.04832L7.3962 0.233619C7.32401 0.0910099 7.16956 0 7.00003 0C6.83049 0 6.67626 0.0910099 6.60385 0.233619L4.67548 4.04832L0.37159 4.65918C0.209488 4.68214 0.0749508 4.78757 0.0226671 4.93201C-0.0293979 5.07624 0.00976022 5.23551 0.124391 5.3446L3.25135 8.32213L2.51238 12.5281C2.48525 12.6817 2.55504 12.8363 2.6922 12.9256C2.76745 12.975 2.85561 13 2.94399 13C3.01662 13 3.08969 12.9829 3.15575 12.9492L6.99981 10.9748L10.8439 12.9492C10.9099 12.9829 10.983 13 11.0556 13C11.144 13 11.2324 12.975 11.3074 12.9256C11.4446 12.8363 11.5144 12.6817 11.4872 12.5281L10.7483 8.32213L13.8752 5.3446C13.9901 5.23531 14.0294 5.07604 13.9774 4.93181Z" fill="#FBBC04"/>
</svg>
